<svg width="307" height="112" viewBox="0 0 307 112" fill="none" xmlns="http://www.w3.org/2000/svg">
<path d="M40.5142 103.907C28.9111 84.1209 17.434 64.4312 5.80341 44.8303C2.9062 39.9477 2.00032 35.1577 4.30011 29.8245C5.77733 26.3989 6.90366 22.8264 8.21471 19.3298C9.18623 16.7387 10.2674 16.004 13.051 16.003C24.9282 15.9988 36.8055 15.9984 48.6827 16.0059C51.7413 16.0078 52.796 16.737 53.8216 19.5045C55.2348 23.3183 56.5964 27.1515 58.0613 30.9458C59.7112 35.2194 59.3504 39.2958 57.0451 43.2258C54.2793 47.9409 51.4969 52.6465 48.5522 57.6438C46.2176 56.2001 44.0344 54.9152 41.9273 53.5184C40.9357 52.8611 41.7061 52.067 42.0778 51.4225C44.4148 47.3697 46.6288 43.2354 49.1949 39.3275C51.2914 36.1346 49.8443 33.5805 48.4368 30.5085C46.6005 32.5504 45.5476 34.7126 44.2178 36.6757C42.6802 38.9457 41.1585 41.2343 39.7896 43.6048C38.9163 45.1171 38.0249 45.1995 36.7695 44.1756C34.9046 42.6545 32.2854 42.0187 31.2095 39.5572C31.1793 39.4882 30.8458 39.5485 30.5305 39.5485C30.3749 40.6242 31.1336 41.2964 31.5951 42.0216C40.5335 56.0693 49.5003 70.0994 58.4562 84.1362C59.4273 85.6581 60.4256 87.1673 61.3075 88.7393C62.3979 90.6828 62.2127 92.6705 60.6659 94.2794C56.7169 98.3869 52.7436 102.475 48.6745 106.466C46.2607 108.833 43.3394 108.398 41.4943 105.595C41.1638 105.093 40.8857 104.557 40.5142 103.907ZM14.0576 30.8746C13.8732 30.6715 13.6269 30.4482 13.3966 30.7064C11.6257 32.6919 11.2585 36.7121 12.6792 39.137C23.4536 57.5276 34.2416 75.9104 45.0364 94.2893C45.3937 94.8978 45.6117 95.6633 46.8209 96.0068C47.8413 94.9311 48.8746 93.5951 50.1535 92.5532C51.9406 91.0975 51.7615 89.8474 50.589 88.0225C38.4117 69.0706 26.3232 50.063 14.0576 30.8746ZM21.2632 25.6413C21.7632 26.506 22.3331 27.3393 22.7483 28.242C23.5458 29.9758 24.7978 30.6002 26.7475 30.4978C29.8359 30.3357 32.9389 30.4531 36.0357 30.4374C36.7639 30.4337 37.6066 30.5919 38.0854 29.8843C39.1162 28.3612 40.0712 26.7881 40.9763 25.363C40.5966 24.7649 40.2651 24.6962 39.9259 24.6956C34.0018 24.6848 28.0776 24.6776 22.1535 24.6794C21.6844 24.6796 21.1633 24.6813 21.2632 25.6413Z" fill="#FFB6C1"/>
<path d="M16.9339 80.13C14.9522 83.1629 13.1187 86.1182 11.1201 88.9655C10.1985 90.2786 10.3842 91.1125 11.5175 92.1756C12.9276 93.4984 14.1241 95.0337 15.7546 96.86C17.6547 93.7577 19.149 91.3437 20.617 88.9148C22.3662 86.0206 21.899 85.8187 25.0917 87.7299C29.8653 90.5876 29.9018 90.5868 27.1594 95.222C25.1198 98.6694 23.0289 102.089 20.9069 105.49C19.0908 108.401 15.9928 108.85 13.5252 106.47C9.45094 102.54 5.4489 98.5397 1.47656 94.5137C-0.233701 92.7804 -0.472712 90.7166 0.835094 88.6744C4.62011 82.7637 8.49219 76.905 12.3171 71.018C12.9723 70.0097 13.6808 69.6389 14.8258 70.4199C16.3364 71.4504 17.9029 72.4074 19.4734 73.3525C20.4198 73.922 20.6112 74.5364 19.967 75.4685C18.9401 76.9541 17.9945 78.4922 16.9339 80.13Z" fill="#FFB6C1"/>
<path d="M112.24 68.04H100.08V66.8L103.84 63.84V41.72L93.16 68.04H90.96L80.36 41.44V64.32L84.56 66.44L83.76 68.04H74.4V66.8L78.16 63.84V40.4L74 38.16L74.8 36.56H83.48L93.48 61.68L103.44 36.56H112.64V37.8L108.84 40.76V64.96L113.04 66.44L112.24 68.04ZM141.447 68H117.447V66.76L121.207 63.8V39.56L117.047 38.16L117.847 36.56H141.047L143.207 35.84V45.04L142.007 45.44L137.247 38.36H126.207V51.04H132.487L135.407 45.92H136.647V58.08L135.047 58.88L132.527 52.84H126.207V66.2H137.087L142.407 58.32L143.607 58.72V68.72L141.447 68ZM166.425 36.2C169.172 36.2 171.598 36.8667 173.705 38.2C175.838 39.5067 177.478 41.3333 178.625 43.68C179.798 46.0267 180.385 48.68 180.385 51.64C180.385 54.68 179.492 57.4933 177.705 60.08C175.945 62.64 173.745 64.68 171.105 66.2C168.492 67.6933 165.985 68.44 163.585 68.44C162.358 68.44 161.118 68.3733 159.865 68.24C157.812 68.1067 156.225 68.04 155.105 68.04H150.025V66.8L153.785 63.84V39.52L149.625 38.16L150.425 36.56H155.065C157.598 36.56 160.065 36.48 162.465 36.32C164.278 36.2133 165.598 36.16 166.425 36.16V36.2ZM164.705 65.48C166.625 65.48 168.372 64.9733 169.945 63.96C171.518 62.92 172.745 61.4933 173.625 59.68C174.532 57.84 174.985 55.7867 174.985 53.52C174.985 50.8 174.558 48.3333 173.705 46.12C172.852 43.88 171.545 42.0933 169.785 40.76C168.052 39.4267 165.892 38.76 163.305 38.76C161.678 38.76 160.172 39.24 158.785 40.2V64.48C160.412 65.1467 162.385 65.48 164.705 65.48ZM197.732 68H185.572V66.76L189.332 63.8V39.56L185.172 38.16L185.972 36.56H198.132V37.8L194.332 40.76V64.96L198.532 66.4L197.732 68ZM235.876 68H223.716V66.76L227.476 63.8V53.24H211.676V64.96L215.876 66.4L215.076 68H202.916V66.76L206.676 63.8V39.56L202.516 38.16L203.316 36.56H215.476V37.8L211.676 40.76V51.44H227.476V39.56L223.316 38.16L224.116 36.56H236.276V37.8L232.476 40.76V64.96L236.676 66.4L235.876 68ZM269.6 40.76V55.6C269.6 58.4 268.92 60.8 267.56 62.8C266.226 64.8 264.573 66.3067 262.6 67.32C260.626 68.3067 258.693 68.8 256.8 68.8C254.426 68.8 252.293 68.28 250.4 67.24C248.533 66.1733 247.066 64.72 246 62.88C244.96 61.0133 244.44 58.92 244.44 56.6V39.56L240.28 38.16L241.08 36.56H253.24V37.8L249.44 40.76V54.68C249.44 58.0667 250.266 60.7067 251.92 62.6C253.6 64.4933 256.133 65.44 259.52 65.44C260.773 65.44 262 65.04 263.2 64.24C264.426 63.4133 265.426 62.2133 266.2 60.64C267 59.0667 267.4 57.2133 267.4 55.08V40.24L263.24 38.16L264.04 36.56H273.4V37.8L269.6 40.76ZM297.177 51.08C299.231 51.6667 300.844 52.6533 302.017 54.04C303.191 55.4267 303.777 57.0267 303.777 58.84C303.777 60.52 303.097 62.1067 301.737 63.6C300.404 65.0667 298.724 66.24 296.697 67.12C294.697 68 292.791 68.44 290.977 68.44C289.644 68.44 288.337 68.3733 287.057 68.24C284.924 68.1067 283.271 68.04 282.097 68.04H277.017V66.8L280.777 63.84V39.52L276.617 38.16L277.417 36.56H282.057C284.484 36.56 286.871 36.48 289.217 36.32C291.031 36.2133 292.364 36.16 293.217 36.16C295.004 36.16 296.577 36.5067 297.937 37.2C299.297 37.8933 300.337 38.84 301.057 40.04C301.804 41.2133 302.177 42.5333 302.177 44C302.177 45.3333 301.711 46.6133 300.777 47.84C299.871 49.04 298.671 50.0933 297.177 51V51.08ZM296.777 46C296.777 43.8933 296.217 42.1733 295.097 40.84C293.977 39.5067 292.311 38.84 290.097 38.84C288.497 38.84 287.057 39.2933 285.777 40.2V50.8H291.497C293.151 50.8 294.444 50.3867 295.377 49.56C296.311 48.7067 296.777 47.5067 296.777 45.96V46ZM292.097 65.52C294.017 65.52 295.537 65.04 296.657 64.08C297.804 63.12 298.377 61.8267 298.377 60.2C298.377 58.12 297.764 56.44 296.537 55.16C295.337 53.88 293.537 53.2 291.137 53.12C290.951 53.1467 290.697 53.16 290.377 53.16H285.777V64.48C287.564 65.2 289.671 65.56 292.097 65.56V65.52Z" fill="black"/>
<path d="M82 77.88C83.4133 77.88 84.66 78.22 85.74 78.9C86.8333 79.58 87.68 80.52 88.28 81.72C88.88 82.92 89.18 84.28 89.18 85.8C89.18 87.36 88.7267 88.8 87.82 90.12C86.9133 91.44 85.7867 92.4867 84.44 93.26C83.0933 94.02 81.8067 94.4 80.58 94.4C79.1667 94.4 77.9133 94.0667 76.82 93.4C75.74 92.72 74.9 91.78 74.3 90.58C73.7 89.38 73.4 88.02 73.4 86.5C73.4 84.94 73.8533 83.5 74.76 82.18C75.6667 80.8467 76.7933 79.8 78.14 79.04C79.4867 78.2667 80.7733 77.88 82 77.88ZM80.84 79.56C79.96 79.56 79.1533 79.82 78.42 80.34C77.7 80.8467 77.1333 81.56 76.72 82.48C76.3067 83.3867 76.1 84.4067 76.1 85.54C76.1 86.8467 76.3067 88.0467 76.72 89.14C77.1333 90.22 77.76 91.0867 78.6 91.74C79.4533 92.3933 80.5 92.72 81.74 92.72C82.62 92.72 83.42 92.4667 84.14 91.96C84.8733 91.44 85.4467 90.7267 85.86 89.82C86.2733 88.9 86.48 87.8733 86.48 86.74C86.48 85.42 86.2733 84.22 85.86 83.14C85.4467 82.0467 84.82 81.18 83.98 80.54C83.14 79.8867 82.0933 79.56 80.84 79.56ZM104.054 94.02H100.254V87.28C100.254 86.5467 100.141 86.0333 99.9142 85.74C99.6876 85.4467 99.2809 85.3 98.6942 85.3C98.2542 85.3 97.8142 85.38 97.3742 85.54C96.9476 85.7 96.4409 86.0067 95.8542 86.46V92.52L97.6542 93.22L97.2542 94.02H91.6742V93.4L93.4542 92V86.34L91.6742 85.3V84.68L95.0942 83L95.7542 85.6L98.5942 83.34C98.8742 83.2333 99.2409 83.18 99.6942 83.18C100.601 83.18 101.321 83.46 101.854 84.02C102.388 84.5667 102.654 85.3133 102.654 86.26V92.5L104.454 93.22L104.054 94.02ZM111.229 94H105.649V93.38L107.429 91.98V79.68L105.649 78.44V77.82L109.069 76.54H109.829V92.5L111.629 93.2L111.229 94ZM119.012 94H113.432V93.38L115.212 91.98V86.14L113.432 84.9V84.28L116.852 83H117.612V92.5L119.412 93.2L119.012 94ZM116.332 77C116.732 77 117.059 77.1467 117.312 77.44C117.579 77.7333 117.712 78.1 117.712 78.54C117.712 78.8467 117.619 79.14 117.432 79.42C117.245 79.6867 117.012 79.9 116.732 80.06C116.452 80.22 116.179 80.3 115.912 80.3C115.512 80.3 115.179 80.1533 114.912 79.86C114.659 79.5667 114.532 79.2 114.532 78.76C114.532 78.4533 114.625 78.1667 114.812 77.9C114.999 77.62 115.232 77.4 115.512 77.24C115.792 77.08 116.065 77 116.332 77ZM133.585 94.02H129.785V87.28C129.785 86.5467 129.672 86.0333 129.445 85.74C129.219 85.4467 128.812 85.3 128.225 85.3C127.785 85.3 127.345 85.38 126.905 85.54C126.479 85.7 125.972 86.0067 125.385 86.46V92.52L127.185 93.22L126.785 94.02H121.205V93.4L122.985 92V86.34L121.205 85.3V84.68L124.625 83L125.285 85.6L128.125 83.34C128.405 83.2333 128.772 83.18 129.225 83.18C130.132 83.18 130.852 83.46 131.385 84.02C131.919 84.5667 132.185 85.3133 132.185 86.26V92.5L133.985 93.22L133.585 94.02ZM142.4 94.04C141.867 94.1467 141.227 94.2 140.48 94.2C139.6 94.2 138.807 93.9733 138.1 93.52C137.407 93.0533 136.86 92.4267 136.46 91.64C136.074 90.8533 135.88 89.9867 135.88 89.04C135.88 88.0133 136.194 87.0533 136.82 86.16C137.447 85.2533 138.227 84.5333 139.16 84C140.107 83.4533 141.02 83.18 141.9 83.18C143.167 83.18 144.147 83.68 144.84 84.68C145.547 85.68 145.9 87 145.9 88.64H138.5C138.58 89.7733 138.887 90.7 139.42 91.42C139.967 92.14 140.707 92.5 141.64 92.5C142.507 92.5 143.74 91.8267 145.34 90.48L145.94 91.24L142.4 94.04ZM140.74 84.86C139.3 84.86 138.547 85.8467 138.48 87.82H143.16C143.04 87.1 142.914 86.5533 142.78 86.18C142.66 85.7933 142.44 85.48 142.12 85.24C141.814 84.9867 141.354 84.86 140.74 84.86ZM173.038 94.02H166.958V93.4L168.838 91.92V80.86L163.498 94.02H162.398L157.098 80.72V92.16L159.198 93.22L158.798 94.02H154.118V93.4L155.998 91.92V80.2L153.918 79.08L154.318 78.28H158.658L163.658 90.84L168.638 78.28H173.238V78.9L171.338 80.38V92.48L173.438 93.22L173.038 94.02ZM182.361 94.04C181.828 94.1467 181.188 94.2 180.441 94.2C179.561 94.2 178.768 93.9733 178.061 93.52C177.368 93.0533 176.821 92.4267 176.421 91.64C176.035 90.8533 175.841 89.9867 175.841 89.04C175.841 88.0133 176.155 87.0533 176.781 86.16C177.408 85.2533 178.188 84.5333 179.121 84C180.068 83.4533 180.981 83.18 181.861 83.18C183.128 83.18 184.108 83.68 184.801 84.68C185.508 85.68 185.861 87 185.861 88.64H178.461C178.541 89.7733 178.848 90.7 179.381 91.42C179.928 92.14 180.668 92.5 181.601 92.5C182.468 92.5 183.701 91.8267 185.301 90.48L185.901 91.24L182.361 94.04ZM180.701 84.86C179.261 84.86 178.508 85.8467 178.441 87.82H183.121C183.001 87.1 182.875 86.5533 182.741 86.18C182.621 85.7933 182.401 85.48 182.081 85.24C181.775 84.9867 181.315 84.86 180.701 84.86ZM200.473 94H196.673V92.56L194.813 94.04C194.386 94.1467 193.873 94.2 193.273 94.2C192.393 94.2 191.6 93.9733 190.893 93.52C190.2 93.0533 189.653 92.4267 189.253 91.64C188.866 90.8533 188.673 89.9867 188.673 89.04C188.673 88.0133 188.986 87.0533 189.613 86.16C190.24 85.2533 191.02 84.5333 191.953 84C192.9 83.4533 193.813 83.18 194.693 83.18C195.426 83.18 196.093 83.3867 196.693 83.8V79.68L194.913 78.44V77.82L198.333 76.54H199.093V92.5L200.873 93.2L200.473 94ZM194.293 92.5C194.693 92.5 195.073 92.4467 195.433 92.34C195.806 92.22 196.22 92 196.673 91.68V87.12C196.593 86.4533 196.28 85.9133 195.733 85.5C195.2 85.0733 194.466 84.86 193.533 84.86C192.026 84.86 191.273 85.9333 191.273 88.08C191.273 89.3333 191.533 90.3867 192.053 91.24C192.573 92.08 193.32 92.5 194.293 92.5ZM208.075 94H202.495V93.38L204.275 91.98V86.14L202.495 84.9V84.28L205.915 83H206.675V92.5L208.475 93.2L208.075 94ZM205.395 77C205.795 77 206.121 77.1467 206.375 77.44C206.641 77.7333 206.775 78.1 206.775 78.54C206.775 78.8467 206.681 79.14 206.495 79.42C206.308 79.6867 206.075 79.9 205.795 80.06C205.515 80.22 205.241 80.3 204.975 80.3C204.575 80.3 204.241 80.1533 203.975 79.86C203.721 79.5667 203.595 79.2 203.595 78.76C203.595 78.4533 203.688 78.1667 203.875 77.9C204.061 77.62 204.295 77.4 204.575 77.24C204.855 77.08 205.128 77 205.395 77ZM216.188 83.18C216.735 83.18 217.368 83.26 218.088 83.42C218.821 83.5667 219.348 83.7333 219.668 83.92V87H218.908C218.388 86.3333 217.788 85.8133 217.108 85.44C216.441 85.0533 215.748 84.86 215.028 84.86C214.415 84.86 213.948 85.1333 213.628 85.68C213.321 86.2267 213.168 87.0267 213.168 88.08C213.168 89.3333 213.441 90.3867 213.988 91.24C214.535 92.08 215.315 92.5 216.328 92.5C217.088 92.5 218.168 91.9533 219.568 90.86L220.168 91.62L217.088 94.04C216.555 94.1467 215.915 94.2 215.168 94.2C214.288 94.2 213.495 93.9733 212.788 93.52C212.095 93.0533 211.548 92.4267 211.148 91.64C210.761 90.8533 210.568 89.9867 210.568 89.04C210.568 88.0133 210.855 87.0467 211.428 86.14C212.015 85.2333 212.748 84.5133 213.628 83.98C214.508 83.4467 215.361 83.18 216.188 83.18ZM232.954 94H229.154V92.26L226.894 94.04C226.627 94.1467 226.294 94.2 225.894 94.2C224.747 94.2 223.914 93.9133 223.394 93.34C222.887 92.7667 222.634 92.08 222.634 91.28C222.634 90.8 222.807 90.3267 223.154 89.86C223.5 89.3933 223.994 88.9533 224.634 88.54H229.154V87.26C229.154 86.3933 228.92 85.78 228.454 85.42C228 85.06 227.374 84.88 226.574 84.88C225.747 84.88 224.734 85.38 223.534 86.38L222.934 85.62L225.814 83.34C226.347 83.2333 226.987 83.18 227.734 83.18C228.947 83.18 229.887 83.48 230.554 84.08C231.22 84.6667 231.554 85.5267 231.554 86.66V92.5L233.354 93.2L232.954 94ZM226.534 92.5C227.347 92.5 228.22 92.1267 229.154 91.38V89.36H225.614C225.44 89.5733 225.314 89.7867 225.234 90C225.167 90.2133 225.134 90.4467 225.134 90.7C225.134 91.1933 225.26 91.62 225.514 91.98C225.767 92.3267 226.107 92.5 226.534 92.5ZM240.135 94H234.555V93.38L236.335 91.98V79.68L234.555 78.44V77.82L237.975 76.54H238.735V92.5L240.535 93.2L240.135 94ZM256.864 90.46C256.864 90.0467 256.698 89.66 256.364 89.3C256.031 88.94 255.611 88.6133 255.104 88.32C254.611 88.0133 253.938 87.64 253.084 87.2C252.071 86.6667 251.258 86.2133 250.644 85.84C250.031 85.4533 249.504 85 249.064 84.48C248.638 83.96 248.424 83.3867 248.424 82.76C248.424 82.0933 248.704 81.38 249.264 80.62C249.824 79.8467 250.504 79.2 251.304 78.68C252.118 78.1467 252.864 77.88 253.544 77.88C254.371 77.88 255.331 77.98 256.424 78.18C257.518 78.38 258.318 78.5933 258.824 78.82V82.7H258.064C257.411 81.62 256.691 80.78 255.904 80.18C255.131 79.58 254.318 79.28 253.464 79.28C252.704 79.28 252.098 79.52 251.644 80C251.204 80.4667 250.984 81.08 250.984 81.84C250.984 82.28 251.151 82.6933 251.484 83.08C251.831 83.4533 252.251 83.7867 252.744 84.08C253.251 84.3733 253.951 84.7533 254.844 85.22C255.831 85.7133 256.631 86.1533 257.244 86.54C257.858 86.9133 258.371 87.3533 258.784 87.86C259.211 88.3533 259.424 88.9133 259.424 89.54C259.424 90.2067 259.124 90.9267 258.524 91.7C257.924 92.46 257.191 93.1067 256.324 93.64C255.471 94.16 254.691 94.42 253.984 94.42C253.118 94.42 252.084 94.32 250.884 94.12C249.698 93.92 248.844 93.7067 248.324 93.48V89.6H249.084C249.764 90.68 250.538 91.52 251.404 92.12C252.271 92.72 253.164 93.02 254.084 93.02C254.631 93.02 255.118 92.9 255.544 92.66C255.971 92.42 256.298 92.1067 256.524 91.72C256.751 91.32 256.864 90.9 256.864 90.46ZM273.908 94H270.108V87.26C270.108 86.5267 269.995 86.0133 269.768 85.72C269.541 85.4267 269.135 85.28 268.548 85.28C268.108 85.28 267.668 85.36 267.228 85.52C266.801 85.68 266.295 85.9867 265.708 86.44V92.5L267.508 93.2L267.108 94H261.528V93.38L263.308 91.98V79.68L261.528 78.44V77.82L264.948 76.54H265.708V85.5L268.448 83.34C268.728 83.2333 269.095 83.18 269.548 83.18C270.455 83.18 271.175 83.46 271.708 84.02C272.241 84.5667 272.508 85.3133 272.508 86.26V92.5L274.308 93.2L273.908 94ZM282.233 83.18C283.113 83.18 283.899 83.4133 284.593 83.88C285.299 84.3333 285.846 84.9533 286.233 85.74C286.633 86.5267 286.833 87.3933 286.833 88.34C286.833 89.3667 286.519 90.3333 285.893 91.24C285.266 92.1333 284.479 92.8533 283.533 93.4C282.599 93.9333 281.693 94.2 280.813 94.2C279.933 94.2 279.139 93.9733 278.433 93.52C277.739 93.0533 277.193 92.4267 276.793 91.64C276.406 90.8533 276.213 89.9867 276.213 89.04C276.213 88.0133 276.526 87.0533 277.153 86.16C277.779 85.2533 278.559 84.5333 279.493 84C280.439 83.4533 281.353 83.18 282.233 83.18ZM281.073 84.86C279.566 84.86 278.813 85.9333 278.813 88.08C278.813 89.3467 279.086 90.4067 279.633 91.26C280.179 92.1 280.959 92.52 281.973 92.52C283.479 92.52 284.233 91.44 284.233 89.28C284.233 88.0267 283.959 86.98 283.413 86.14C282.866 85.2867 282.086 84.86 281.073 84.86ZM295.51 94.22C294.79 94.22 294.124 94 293.51 93.56V97.44L296.31 98.3L295.91 99.1H289.33V98.48L291.11 97.08V86.34L289.33 85.3V84.68L292.75 83L293.41 85.6L296.27 83.34C296.697 83.2333 297.184 83.18 297.73 83.18C298.45 83.18 299.097 83.4133 299.67 83.88C300.257 84.3333 300.71 84.9533 301.03 85.74C301.364 86.5267 301.53 87.3933 301.53 88.34C301.53 89.3667 301.217 90.3333 300.59 91.24C299.964 92.1333 299.177 92.8533 298.23 93.4C297.297 93.9333 296.39 94.2 295.51 94.2V94.22ZM296.71 85.1C296.204 85.1 295.71 85.2 295.23 85.4C294.75 85.6 294.177 85.9933 293.51 86.58V89.96C293.51 90.6933 293.784 91.3067 294.33 91.8C294.877 92.2933 295.657 92.54 296.67 92.54C298.177 92.54 298.93 91.4667 298.93 89.32C298.93 88.1333 298.737 87.1333 298.35 86.32C297.964 85.5067 297.417 85.1 296.71 85.1Z" fill="#000E04" fill-opacity="0.53"/>
</svg>
