<svg width="62" height="92" viewBox="0 0 62 92" fill="none" xmlns="http://www.w3.org/2000/svg">
<path d="M40.5142 87.9075C28.9111 68.1209 17.434 48.4312 5.80341 28.8303C2.9062 23.9477 2.00032 19.1577 4.30011 13.8245C5.77733 10.3989 6.90366 6.82641 8.21471 3.32979C9.18623 0.738714 10.2674 0.00404183 13.051 0.00303767C24.9282 -0.00124742 36.8055 -0.00158974 48.6827 0.00587626C51.7413 0.00779896 52.796 0.737036 53.8216 3.50449C55.2348 7.31831 56.5964 11.1515 58.0613 14.9458C59.7112 19.2193 59.3504 23.2958 57.0451 27.2258C54.2793 31.9409 51.4969 36.6465 48.5522 41.6438C46.2176 40.2001 44.0344 38.9152 41.9273 37.5184C40.9357 36.8611 41.7061 36.067 42.0778 35.4225C44.4148 31.3697 46.6288 27.2354 49.1949 23.3275C51.2914 20.1346 49.8443 17.5805 48.4368 14.5085C46.6005 16.5504 45.5476 18.7126 44.2178 20.6757C42.6802 22.9457 41.1585 25.2343 39.7896 27.6048C38.9163 29.1171 38.0249 29.1995 36.7695 28.1756C34.9046 26.6545 32.2854 26.0187 31.2095 23.5572C31.1793 23.4882 30.8458 23.5485 30.5305 23.5485C30.3749 24.6242 31.1336 25.2964 31.5951 26.0216C40.5335 40.0693 49.5003 54.0994 58.4562 68.1362C59.4273 69.6581 60.4256 71.1673 61.3075 72.7393C62.3979 74.6828 62.2127 76.6705 60.6659 78.2794C56.7169 82.3869 52.7436 86.4748 48.6745 90.4657C46.2607 92.8331 43.3394 92.3978 41.4943 89.5947C41.1638 89.0928 40.8857 88.5572 40.5142 87.9075ZM14.0576 14.8746C13.8732 14.6715 13.6269 14.4482 13.3966 14.7064C11.6257 16.6919 11.2585 20.7121 12.6792 23.137C23.4536 41.5276 34.2416 59.9104 45.0364 78.2893C45.3937 78.8978 45.6117 79.6633 46.8209 80.0068C47.8413 78.9311 48.8746 77.5951 50.1535 76.5532C51.9406 75.0975 51.7615 73.8474 50.589 72.0225C38.4117 53.0706 26.3232 34.063 14.0576 14.8746ZM21.2632 9.64127C21.7632 10.506 22.3331 11.3393 22.7483 12.242C23.5458 13.9758 24.7978 14.6002 26.7475 14.4978C29.8359 14.3357 32.9389 14.4531 36.0357 14.4374C36.7639 14.4337 37.6066 14.5919 38.0854 13.8843C39.1162 12.3612 40.0712 10.7881 40.9763 9.36296C40.5966 8.76495 40.2651 8.6962 39.9259 8.69558C34.0018 8.68476 28.0776 8.67762 22.1535 8.67945C21.6844 8.67959 21.1633 8.68126 21.2632 9.64127Z" fill="black"/>
<path d="M16.9339 64.13C14.9522 67.1629 13.1187 70.1182 11.1201 72.9655C10.1985 74.2786 10.3842 75.1125 11.5175 76.1756C12.9276 77.4984 14.1241 79.0337 15.7546 80.86C17.6547 77.7577 19.149 75.3437 20.617 72.9148C22.3662 70.0206 21.899 69.8187 25.0917 71.7299C29.8653 74.5876 29.9018 74.5868 27.1594 79.222C25.1198 82.6694 23.0289 86.0894 20.9069 89.4903C19.0908 92.4009 15.9928 92.8496 13.5252 90.4698C9.45094 86.5404 5.4489 82.5397 1.47656 78.5137C-0.233701 76.7804 -0.472712 74.7166 0.835094 72.6744C4.62011 66.7637 8.49219 60.905 12.3171 55.018C12.9723 54.0097 13.6808 53.6389 14.8258 54.4199C16.3364 55.4504 17.9029 56.4074 19.4734 57.3525C20.4198 57.922 20.6113 58.5364 19.967 59.4685C18.9401 60.9541 17.9945 62.4922 16.9339 64.13Z" fill="black"/>
</svg>
